<?xml version="1.0" encoding="iso-8859-1"?>
<!-- Generator: Adobe Illustrator 16.0.0, SVG Export Plug-In . SVG Version: 6.00 Build 0)  -->
<!DOCTYPE svg PUBLIC "-//W3C//DTD SVG 1.1//EN" "http://www.w3.org/Graphics/SVG/1.1/DTD/svg11.dtd">
<svg version="1.1" id="Capa_1" xmlns="http://www.w3.org/2000/svg" xmlns:xlink="http://www.w3.org/1999/xlink" x="0px" y="0px"
	 width="56.618px" height="56.618px" viewBox="0 0 56.618 56.618" style="enable-background:new 0 0 56.618 56.618;"
	 xml:space="preserve">
<g>
	<g id="_x31_5_1_">
		<g>
			<path d="M4.962,12.309h46.694c0.679,0,1.229-0.551,1.229-1.231c0-0.68-0.551-1.23-1.229-1.23H36.91V7.385
				C36.91,3.312,33.603,0,29.538,0H27.08c-4.065,0-7.373,3.312-7.373,7.385v2.462H4.962c-0.68,0-1.229,0.55-1.229,1.23
				C3.733,11.758,4.282,12.309,4.962,12.309z M22.165,7.385c0-2.715,2.204-4.923,4.915-4.923h2.458c2.711,0,4.916,2.208,4.916,4.923
				v2.462H22.165V7.385z M51.656,17.231H4.962c-0.68,0-1.229,0.551-1.229,1.232c0,0.68,0.549,1.23,1.229,1.23h4.915v29.95
				c0,3.847,3.123,6.976,6.964,6.976h22.937c3.84,0,6.963-3.129,6.963-6.976v-29.95h4.916c0.68,0,1.229-0.551,1.229-1.23
				C52.883,17.782,52.334,17.231,51.656,17.231z M44.283,49.645c0,2.488-2.021,4.513-4.506,4.513H16.84
				c-2.485,0-4.506-2.023-4.506-4.513V19.694h31.949V49.645z M20.935,48.003c0.68,0,1.229-0.551,1.229-1.231V27.078
				c0-0.68-0.55-1.23-1.229-1.23c-0.679,0-1.229,0.551-1.229,1.23v19.693C19.707,47.452,20.256,48.003,20.935,48.003z
				 M28.308,48.003c0.68,0,1.229-0.551,1.229-1.231V27.078c0-0.68-0.55-1.23-1.229-1.23c-0.679,0-1.229,0.551-1.229,1.23v19.693
				C27.08,47.452,27.629,48.003,28.308,48.003z M35.681,48.003c0.679,0,1.229-0.551,1.229-1.231V27.078c0-0.68-0.55-1.23-1.229-1.23
				c-0.681,0-1.229,0.551-1.229,1.23v19.693C34.454,47.452,35.002,48.003,35.681,48.003z"/>
		</g>
	</g>
</g>
<g>
</g>
<g>
</g>
<g>
</g>
<g>
</g>
<g>
</g>
<g>
</g>
<g>
</g>
<g>
</g>
<g>
</g>
<g>
</g>
<g>
</g>
<g>
</g>
<g>
</g>
<g>
</g>
<g>
</g>
</svg>
